<?xml version="1.0" standalone="no"?>
<!DOCTYPE svg PUBLIC "-//W3C//DTD SVG 20010904//EN"
 "http://www.w3.org/TR/2001/REC-SVG-20010904/DTD/svg10.dtd">
<svg version="1.0" xmlns="http://www.w3.org/2000/svg"
 width="192.000000pt" height="192.000000pt" viewBox="0 0 192.000000 192.000000"
 preserveAspectRatio="xMidYMid meet">
<metadata>
Created by potrace 1.11, written by Peter Selinger 2001-2013
</metadata>
<g transform="translate(0.000000,192.000000) scale(0.100000,-0.100000)"
fill="#000000" stroke="none">
<path d="M0 960 l0 -960 960 0 960 0 0 960 0 960 -960 0 -960 0 0 -960z m620
478 c221 -329 332 -491 340 -501 3 -4 120 161 260 368 l253 375 123 0 124 0 0
-720 c0 -396 -3 -720 -7 -720 -5 0 -7 322 -5 715 l2 715 -117 0 -118 0 -180
-268 c-99 -147 -211 -315 -250 -374 -38 -58 -74 -105 -79 -104 -10 2 -70 88
-336 485 l-175 261 -118 0 -117 0 2 -715 c2 -393 0 -715 -4 -715 -5 0 -8 324
-8 720 l0 720 124 0 123 0 163 -242z m-8 -473 c52 -77 152 -225 222 -328 l128
-188 125 183 c69 101 166 243 214 316 49 72 92 132 94 132 7 0 0 -11 -228
-345 -109 -159 -201 -291 -205 -292 -4 -1 -109 149 -234 334 l-228 337 0 -437
0 -437 -27 1 c-24 2 -25 2 -5 6 l22 4 0 442 c0 372 2 439 14 427 7 -8 56 -78
108 -155z m821 148 c-7 -3 -11 -10 -9 -16 1 -7 1 -9 -1 -4 -3 4 -9 4 -15 1 -6
-4 -5 3 2 15 6 12 16 19 23 14 8 -5 8 -8 0 -10z m-6 -75 c-3 -7 -5 -2 -5 12 0
14 2 19 5 13 2 -7 2 -19 0 -25z m0 -40 c-3 -8 -6 -5 -6 6 -1 11 2 17 5 13 3
-3 4 -12 1 -19z m0 -40 c-3 -8 -6 -5 -6 6 -1 11 2 17 5 13 3 -3 4 -12 1 -19z
m0 -55 c-3 -10 -5 -4 -5 12 0 17 2 24 5 18 2 -7 2 -21 0 -30z m0 -85 c-3 -7
-5 -2 -5 12 0 14 2 19 5 13 2 -7 2 -19 0 -25z m0 -40 c-3 -8 -6 -5 -6 6 -1 11
2 17 5 13 3 -3 4 -12 1 -19z m0 -40 c-3 -8 -6 -5 -6 6 -1 11 2 17 5 13 3 -3 4
-12 1 -19z m0 -60 c-3 -8 -6 -5 -6 6 -1 11 2 17 5 13 3 -3 4 -12 1 -19z m0
-50 c-3 -7 -5 -2 -5 12 0 14 2 19 5 13 2 -7 2 -19 0 -25z m0 -40 c-3 -8 -6 -5
-6 6 -1 11 2 17 5 13 3 -3 4 -12 1 -19z m0 -40 c-3 -8 -6 -5 -6 6 -1 11 2 17
5 13 3 -3 4 -12 1 -19z m0 -40 c-3 -8 -6 -5 -6 6 -1 11 2 17 5 13 3 -3 4 -12
1 -19z m0 -50 c-3 -7 -5 -2 -5 12 0 14 2 19 5 13 2 -7 2 -19 0 -25z m0 -80
c-3 -7 -5 -2 -5 12 0 14 2 19 5 13 2 -7 2 -19 0 -25z m0 -40 c-3 -8 -6 -5 -6
6 -1 11 2 17 5 13 3 -3 4 -12 1 -19z m21 -92 c12 -3 11 -4 -3 -3 -12 1 -20 10
-21 22 -1 14 0 15 3 3 2 -9 12 -19 21 -22z m-1135 -3 c-7 -2 -21 -2 -30 0 -10
3 -4 5 12 5 17 0 24 -2 18 -5z m86 -3 c-6 -5 -18 -6 -26 -3 -19 8 -16 11 13
11 17 0 22 -3 13 -8z m1194 3 c-7 -2 -21 -2 -30 0 -10 3 -4 5 12 5 17 0 24 -2
18 -5z m86 -3 c-6 -5 -18 -6 -26 -3 -19 8 -16 11 13 11 17 0 22 -3 13 -8z"/>
</g>
</svg>
